<svg id="Calque_1" data-name="Calque 1" xmlns="http://www.w3.org/2000/svg" xmlns:xlink="http://www.w3.org/1999/xlink" viewBox="0 0 259.29 338.37"><defs><style>.cls-1,.cls-3,.cls-4,.cls-6,.cls-7,.cls-8{fill:none;}.cls-2{clip-path:url(#clip-path);}.cls-3,.cls-4{stroke:#000;}.cls-3,.cls-7,.cls-8{stroke-linecap:round;}.cls-3,.cls-4,.cls-6,.cls-8{stroke-miterlimit:10;}.cls-3,.cls-4,.cls-6,.cls-7,.cls-8{stroke-width:3px;}.cls-5{fill:#78422f;}.cls-6,.cls-7,.cls-8{stroke:#060707;}.cls-7{stroke-linejoin:round;}.cls-9{fill:#54b36a;}.cls-10{fill:#266735;}.cls-11{fill:#59311e;}.cls-12{fill:#9a7967;}.cls-13{fill:#633925;}.cls-14{fill:#52becc;}.cls-15{fill:#0d0d0d;}.cls-16{fill:#3a4697;}.cls-17{fill:#2d4a9a;}.cls-18{fill:#376eb5;}.cls-19{fill:#a8dae2;}.cls-20{fill:#020202;}.cls-21{fill:#fff;}.cls-22{fill:#f07e19;}</style><clipPath id="clip-path" transform="translate(-12.65 -3.54)"><rect class="cls-1" x="-167" y="-269.89" width="595.28" height="841.89"/></clipPath></defs><title>cupcake</title><g class="cls-2"><path class="cls-3" d="M208.4,224.81c4.22,1.59,32.7,18.47,55.12-36.39" transform="translate(-12.65 -3.54)"/><path class="cls-3" d="M268,205.89c-1.78.4-12.88,1.09-13.76,1" transform="translate(-12.65 -3.54)"/><path class="cls-3" d="M270.44,195.8c-2.87,1.39-14.25,8.86-14.71,8.6a104.1,104.1,0,0,1-10.91-8.6" transform="translate(-12.65 -3.54)"/><path class="cls-3" d="M253,188.42c0,1.45,2.52,15.08,2.7,16" transform="translate(-12.65 -3.54)"/><path d="M37.23,264.11c1.38,1.65.2,10.48.2,11.47s.72,3.37-.6,3.23-3.75-2.9-3.36-3.29A6.24,6.24,0,0,0,35.91,272c.79-2.58-2.37-2.51-2.64-2.18s-3.09,4.15-3.89,5.21.33,3.16.4,3.69,4,3.17,5.67,4.22,5.47,1,6.59.53a3.88,3.88,0,0,1,3.7-.2c1.91.73,6.59-.79,7.25-1.12s.72-9.49-5.47-18.07c0,0-3.32-5.11-6.46-5.11s-4.67-.2-5.39,0,1.56,5.18,1.56,5.18" transform="translate(-12.65 -3.54)"/><path class="cls-4" d="M41.19,222.54C30.9,223.5.71,237.34,21,252.47c5.84,4.35,17.31,8.21,17.31,8.21" transform="translate(-12.65 -3.54)"/><path d="M106.82,336.24c-3.76,2.48-21.19,5.54-22.64,5.67s-1.45-3.16,0-4.22c1.21-.87,11.17-5.18,16.54-7.55-7.53-15.09,1.93-32.69,2-32.88l2.59,1.51c-.1.18-8.69,16.61-1.87,30.17,1.86-.37,4,6.87,3.34,7.3" transform="translate(-12.65 -3.54)"/><path d="M161.54,335.85c3.76,2.48,20.48-.79,21.93-.66s1.45-3.16,0-4.22c-1.21-.87-12.95-1.43-18.32-3.8,7.53-15.09-1.93-32.69-2-32.88l-2.59,1.51c.1.18,8.69,16.61,1.87,30.17-1.86-.37-1.51,9.45-.85,9.88" transform="translate(-12.65 -3.54)"/><path class="cls-5" d="M35.38,164.15s-2.24-20.43-3.69-29.53,8.71-34.82,24-37.19,122.9-4.75,122.9-4.75,32.18,5.28,33.76,33.5,1.85,37.71,1.85,37.71L37.49,176.46Z" transform="translate(-12.65 -3.54)"/><path class="cls-6" d="M35.38,164.15s-2.24-20.43-3.69-29.53,8.71-34.82,24-37.19,122.9-4.75,122.9-4.75,32.18,5.28,33.76,33.5,1.85,37.71,1.85,37.71L37.49,176.46Z" transform="translate(-12.65 -3.54)"/><path class="cls-7" d="M127,138.24c6.33.79,64.29,2.93,79.92-12.58" transform="translate(-12.65 -3.54)"/><path class="cls-8" d="M31.67,130.52c11.95,4.4,48.51,14.3,88,7.52" transform="translate(-12.65 -3.54)"/><path class="cls-9" d="M126.11,164.42c-15.3-15.69-30.33-10.16-36.66.66l-.54-.48c3.78,29.65,14,110.31,17.91,141.8a204.63,204.63,0,0,0,30.16.3L126.14,164.37l0,0" transform="translate(-12.65 -3.54)"/><path class="cls-6" d="M126.11,164.42c-15.3-15.69-30.33-10.16-36.66.66l-.54-.48c3.78,29.65,14,110.31,17.91,141.8a204.63,204.63,0,0,0,30.16.3L126.14,164.37Z" transform="translate(-12.65 -3.54)"/><path class="cls-9" d="M52.66,162.44l-.38-.27c6.29,28.9,22.33,110.76,28,139.88a162.55,162.55,0,0,0,26.53,4.35c-4-31.48-14.13-112.15-17.91-141.8-10.62-9.32-28.34-14.28-36.25-2.16" transform="translate(-12.65 -3.54)"/><path class="cls-6" d="M52.66,162.44l-.38-.27c6.29,28.9,22.33,110.76,28,139.88a162.55,162.55,0,0,0,26.53,4.35c-4-31.48-14.13-112.15-17.91-141.8C78.29,155.28,60.57,150.32,52.66,162.44Z" transform="translate(-12.65 -3.54)"/><path class="cls-9" d="M21.8,170.75S47.52,270.37,52.92,288.9c5.55,5.58,15.31,10,27.37,13.15-5.68-29.12-21.72-111-28-139.88-20.2-15.16-31.66,4.38-30.48,8.58" transform="translate(-12.65 -3.54)"/><path class="cls-6" d="M21.8,170.75S47.52,270.37,52.92,288.9c5.55,5.58,15.31,10,27.37,13.15-5.68-29.12-21.72-111-28-139.88C32.08,147,20.62,166.55,21.8,170.75Z" transform="translate(-12.65 -3.54)"/><path class="cls-9" d="M193.23,158.75c-.1-.15-.21-.28-.31-.42l-6,137c10.12-4.72,18.29-10.94,23.22-18.84,3.23-5.18,8.57-111.3,9.1-121.06-7.52-6.72-17.8-5.34-26,3.3" transform="translate(-12.65 -3.54)"/><path class="cls-6" d="M193.23,158.75c-.1-.15-.21-.28-.31-.42l-6,137c10.12-4.72,18.29-10.94,23.22-18.84,3.23-5.18,8.57-111.3,9.1-121.06C211.69,148.73,201.41,150.11,193.23,158.75Z" transform="translate(-12.65 -3.54)"/><path class="cls-9" d="M126.14,164.37,137,306.7a177.57,177.57,0,0,0,24.56-3.24l1.39-142.33c-12.35-13.39-28-10-36.79,3.24" transform="translate(-12.65 -3.54)"/><path class="cls-6" d="M126.14,164.37,137,306.7a177.57,177.57,0,0,0,24.56-3.24l1.39-142.33C150.58,147.74,134.92,151.13,126.14,164.37Z" transform="translate(-12.65 -3.54)"/><path class="cls-9" d="M163.17,161.38l-.24-.25-1.39,142.33a115.88,115.88,0,0,0,25.35-8.11l6-137c-8.32-11.26-21-9.19-29.75,3" transform="translate(-12.65 -3.54)"/><path class="cls-6" d="M163.17,161.38l-.24-.25-1.39,142.33a115.88,115.88,0,0,0,25.35-8.11l6-137C184.6,147.07,171.89,149.14,163.17,161.38Z" transform="translate(-12.65 -3.54)"/><path class="cls-10" d="M212.09,167.06a3.7,3.7,0,1,1-3.69-3.7,3.7,3.7,0,0,1,3.69,3.7" transform="translate(-12.65 -3.54)"/><path class="cls-10" d="M201.42,275.08h0a2.78,2.78,0,0,1-2.58-2.95l6.2-92.89a2.77,2.77,0,0,1,5.53.37l-6.2,92.89a2.78,2.78,0,0,1-3,2.58" transform="translate(-12.65 -3.54)"/><path class="cls-11" d="M203.05,147.74h0a3.92,3.92,0,0,1-3.9-3.9v-7a3.9,3.9,0,0,1,7.8,0v7a3.92,3.92,0,0,1-3.9,3.9" transform="translate(-12.65 -3.54)"/><path class="cls-12" d="M43.83,152.51h0a3.89,3.89,0,0,1-4.47-3.21l-1.13-6.9a3.9,3.9,0,0,1,7.69-1.26L47,148a3.89,3.89,0,0,1-3.21,4.47" transform="translate(-12.65 -3.54)"/><path class="cls-13" d="M189.24,113.32c2.43,1.7,4.85,7.71,5.44,8.9s4.55,3.76,6.33,0c1.45-3-1.19-6.58-2.74-9s-3.43-6.32-6.74-6.55a4.58,4.58,0,0,0-3.92,2.15c-1,1.78.13,3.49,1.63,4.54" transform="translate(-12.65 -3.54)"/><path class="cls-12" d="M54.82,115.37c-2.43,1.71-4.84,7.72-5.43,8.9s-4.55,3.76-6.33,0c-1.45-3,1.19-6.57,2.74-9s3.43-6.31,6.74-6.55a4.61,4.61,0,0,1,3.92,2.15c1,1.79-.14,3.49-1.64,4.54" transform="translate(-12.65 -3.54)"/><path class="cls-14" d="M73.28,109.1c-11.55,0-22.26-8-23.14-9.51-4.55-8-5.76-15.09-3.68-21.72C50.88,63.76,69.24,55,84,47.93c4-1.94,7.88-3.77,10.94-5.5,12.24-7,11.15-18.47,8.17-27.35,6.13,8.65,12.62,18.4,13.79,22.14,1.76,5.66-1.16,7.08-1.28,7.14l-.6.28-.23.64-11.5,35.6c-.05.14-2.77,9.16-16.35,22.74a18.62,18.62,0,0,1-13.65,5.48Z" transform="translate(-12.65 -3.54)"/><path class="cls-15" d="M106.41,22.45c4.5,6.61,8.25,12.62,9.06,15.21,1.22,3.92-.11,5.09-.46,5.32l-1.16.34-.48,1.49L101.86,80.42l0,0v0c0,.08-2.73,8.82-16,22a17.17,17.17,0,0,1-12.6,5c-10.39,0-20.61-7.08-21.86-8.8C47.11,91.22,46,84.51,47.89,78.31c4.23-13.48,22.26-22.1,36.75-29,4.08-2,7.93-3.79,11-5.55,9.75-5.53,11.66-13.65,10.73-21.28M96.57,3.54c1.85,5.4,16.22,27-2.37,37.58S28.92,65.38,48.84,100.33c1.31,2.31,12.81,10.27,24.44,10.27A20.12,20.12,0,0,0,88,104.68c14.11-14.11,16.71-23.34,16.71-23.34l11.51-35.6s4.35-1.8,2.11-9S96.57,3.54,96.57,3.54" transform="translate(-12.65 -3.54)"/><path class="cls-16" d="M169.09,107.17a19.63,19.63,0,0,1-15.2-6.76c-6.27-7.31-1.66-15.15,2-21.46,2.47-4.19,4.6-7.82,2.82-10.56C155.87,64,117.15,23,102.84,8,129.57,20.17,203.61,58.06,188,96.6c-2.44,6-10.58,10.57-18.93,10.57" transform="translate(-12.65 -3.54)"/><path class="cls-15" d="M109.35,12.64a301.9,301.9,0,0,1,43.09,24.88c13.46,9.56,23.33,19,29.33,28.1,7.06,10.7,8.7,20.93,4.86,30.42-2.23,5.49-9.76,9.63-17.54,9.63A18,18,0,0,1,155,99.43c-5.17-6-2.35-12,2.2-19.72,2.72-4.62,5.07-8.62,2.78-12.14-2.66-4.09-33.59-36.91-50.66-54.93M96.57,3.54s57.5,60.39,60.92,65.67-15.82,19.25-4.74,32.17a21,21,0,0,0,16.34,7.29c8.92,0,17.62-4.85,20.32-11.51C208.48,50,101,5.52,96.57,3.54" transform="translate(-12.65 -3.54)"/><path class="cls-17" d="M134.67,113.52c-4.38,0-10.62-.92-15.46-5.33-5.2-4.74-1.69-10.22,4.72-18.69,4.73-6.27,9.63-12.75,8.17-19.3C129.69,59.4,109.35,23,101.19,8.6c15.3,11,57.3,43.65,62.07,73.23a28.09,28.09,0,0,1-5.63,22.59c-4,5.19-13.93,9.1-23,9.1" transform="translate(-12.65 -3.54)"/><path class="cls-15" d="M106,14c5.9,4.47,13.51,10.57,21.18,17.64,20.36,18.78,32.34,36.21,34.63,50.42,1.31,8.15-.43,15.16-5.33,21.43-3.28,4.2-12.32,8.53-21.78,8.53-4.12,0-10-.86-14.45-4.94-4.13-3.76-1.68-8,4.9-16.68,4.95-6.54,10.06-13.3,8.45-20.53C131.41,60.23,115.38,30.78,106,14M96.57,3.54s31.12,53.8,34.07,67-24.31,28-12.44,38.77c4.48,4.08,10.44,5.72,16.47,5.72,9.92,0,20-4.43,24.14-9.68C189.62,65.9,99,5.12,96.57,3.54" transform="translate(-12.65 -3.54)"/><path class="cls-18" d="M98.24,118.67c-6.8,0-15.76-1.83-19.83-10.54C71.78,94,84.9,80.6,96.47,68.82a111.9,111.9,0,0,0,10.28-11.39c7.37-10.16,2.42-29.16-2.77-42.12C111.7,25.47,122.64,41,127.92,53.47c8.65,20.51,4.12,43.11-1,53.3-2.78,5.5-15.9,11.9-28.64,11.9Z" transform="translate(-12.65 -3.54)"/><path class="cls-15" d="M108.72,24.25c6.61,9.23,13.85,20.38,17.82,29.81,8.45,20,4,42.09-1,52-2.54,5-15.28,11.07-27.3,11.07-6.36,0-14.73-1.68-18.47-9.67-6.19-13.24,6.54-26.2,17.77-37.63A112.38,112.38,0,0,0,108,58.31c6-8.22,4.12-21.56,1.52-31.31-.24-.92-.5-1.84-.77-2.75M96.57,3.54c5,7.38,18.73,39.56,9,53s-38,31.91-28.48,52.22c3.88,8.32,12.27,11.4,21.18,11.4,12.84,0,26.78-6.39,30-12.72,5.44-10.75,9.89-33.69,1.09-54.56S96.57,3.54,96.57,3.54" transform="translate(-12.65 -3.54)"/><path class="cls-19" d="M75.13,59.65c-1.92.24-4.34,2.7-3.75,4.61s1.59,2.38,2.31,2.58,4.68-2.31,5.08-3.3a3.06,3.06,0,0,0-3.64-3.89" transform="translate(-12.65 -3.54)"/><path class="cls-19" d="M63.22,67.8c-.33.23-.55.41-.82.6A29.56,29.56,0,0,0,57.06,74C53.6,78.3,49.22,85,51.54,90.84c.8,2,2.42,5.23,5.1,4.6a4.47,4.47,0,0,0,3.2-3.16c.12-1-.64-1.81-.94-2.7a7.88,7.88,0,0,1,.29-5.53,26.07,26.07,0,0,1,7-9.1c1.6-1.4,3.89-3.47,2.93-5.52-1.71-3.62-4.24-2.82-5.89-1.63" transform="translate(-12.65 -3.54)"/><path class="cls-20" d="M181.76,213a20.22,20.22,0,1,1-20.22-20.22A20.22,20.22,0,0,1,181.76,213" transform="translate(-12.65 -3.54)"/><path class="cls-21" d="M173.05,209.58c-2.06,2.45-6.34,2.26-9.56-.44s-4.16-6.87-2.11-9.33,6.34-2.26,9.56.44,4.16,6.87,2.11,9.33" transform="translate(-12.65 -3.54)"/><path class="cls-22" d="M165.43,220.06a2.82,2.82,0,0,0,.51.68,6.23,6.23,0,0,0,2.29,1.44,3.71,3.71,0,0,0,2.36.25,4.45,4.45,0,0,0,2.19-2,5.61,5.61,0,0,0,.85-1.58,2.12,2.12,0,0,0-.2-1.74,3.18,3.18,0,0,0-2.59-1l-2.26-.12c-2.14-.12-4.37,1.55-3.15,4" transform="translate(-12.65 -3.54)"/><path class="cls-3" d="M62,209.4c4.9-2.72,29.63-4.7,36,10.73-9-2.37-24.33-2.12-29.48,2.41" transform="translate(-12.65 -3.54)"/><path class="cls-3" d="M107.42,236.76c1.46,2.84,4.15,5.45,7.34,5.33a8.58,8.58,0,0,0,2.18-.42,18.58,18.58,0,0,0,11-9.3" transform="translate(-12.65 -3.54)"/></g></svg>