<svg id="Calque_1" data-name="Calque 1" xmlns="http://www.w3.org/2000/svg" xmlns:xlink="http://www.w3.org/1999/xlink" viewBox="0 0 395.52 400.59"><defs><style>.cls-1,.cls-15,.cls-16,.cls-17,.cls-19{fill:none;}.cls-2{clip-path:url(#clip-path);}.cls-10,.cls-11,.cls-12,.cls-13,.cls-14,.cls-3,.cls-4,.cls-5,.cls-6,.cls-7,.cls-8,.cls-9{fill:#231f20;}.cls-4{font-size:42px;}.cls-10,.cls-11,.cls-12,.cls-13,.cls-14,.cls-4,.cls-5,.cls-6,.cls-7,.cls-8,.cls-9{font-family:PraterBlockFillWebW03-Rg, PraterBlockFillWebW03-Rg;}.cls-5{font-size:42px;}.cls-6{font-size:42px;}.cls-7{font-size:42px;}.cls-8{font-size:42px;}.cls-9{font-size:42px;}.cls-10{font-size:42px;}.cls-11{font-size:42px;}.cls-12{font-size:42px;}.cls-13{font-size:42px;}.cls-14{font-size:42px;}.cls-15{stroke:#28a8e0;stroke-width:7px;}.cls-15,.cls-16,.cls-17{stroke-miterlimit:10;}.cls-16,.cls-17,.cls-19{stroke:#000;stroke-width:1.62px;}.cls-16,.cls-19{stroke-linecap:round;}.cls-18{fill:#6f3f2f;}.cls-19{stroke-linejoin:round;}.cls-20{fill:#4fbb77;}.cls-21{fill:#25683b;}.cls-22{fill:#512c1c;}.cls-23{fill:#8f6f61;}.cls-24{fill:#5b3524;}.cls-25{fill:#46c2cc;}.cls-26{fill:#000002;}.cls-27{fill:#3651a3;}.cls-28{fill:#2555a6;}.cls-29{fill:#3572b9;}.cls-30{fill:#98d7de;}.cls-31{fill:#fff;}.cls-32{fill:#f5822a;}</style><clipPath id="clip-path" transform="translate(-3.55 -3.48)"><rect class="cls-1" x="-96.33" y="-185.22" width="595.28" height="841.89"/></clipPath></defs><title>vegYo-Bakery</title><g class="cls-2"><path class="cls-3" d="M395.46,209.5a32.81,32.81,0,0,1,0-11.44l3.1-17.61a33,33,0,0,0-3.91-22.21l-8.94-15.49A32.84,32.84,0,0,1,381.79,132l-3.1-17.6a33,33,0,0,0-11.28-19.54l-13.7-11.49a33,33,0,0,1-7.35-8.77l-8.94-15.48a32.91,32.91,0,0,0-17.28-14.49l-16.8-6.12a33.24,33.24,0,0,1-9.92-5.73L279.73,21.28a33,33,0,0,0-21.19-7.71H240.66a32.79,32.79,0,0,1-11.27-2L212.58,5.46a33.12,33.12,0,0,0-22.56,0l-16.79,6.12a32.89,32.89,0,0,1-11.28,2H144.08a33,33,0,0,0-21.19,7.71L109.18,32.77a33.07,33.07,0,0,1-9.91,5.73L82.48,44.62A32.84,32.84,0,0,0,65.2,59.11L56.26,74.59a32.85,32.85,0,0,1-7.37,8.77L35.2,94.85a33,33,0,0,0-11.27,19.54L20.82,132a32.84,32.84,0,0,1-3.92,10.76L8,158.24A33,33,0,0,0,4,180.45l3.12,17.61a33.3,33.3,0,0,1,0,11.44L4,227.1A33.06,33.06,0,0,0,8,249.32L16.9,264.8a32.92,32.92,0,0,1,3.92,10.76l3.11,17.61A33,33,0,0,0,35.2,312.7l13.69,11.49A33.16,33.16,0,0,1,56.26,333l8.94,15.49a32.93,32.93,0,0,0,17.28,14.49l16.79,6.11a33.07,33.07,0,0,1,9.91,5.73l13.71,11.5A33,33,0,0,0,144.08,394H162a32.65,32.65,0,0,1,11.28,2L190,402.09a33.12,33.12,0,0,0,22.56,0L229.39,396a32.56,32.56,0,0,1,11.27-2h17.88a33,33,0,0,0,21.19-7.71l13.69-11.5a33.24,33.24,0,0,1,9.92-5.73l16.8-6.11a33,33,0,0,0,17.28-14.49L346.36,333a33.28,33.28,0,0,1,7.35-8.77l13.7-11.49a33,33,0,0,0,11.28-19.53l3.1-17.61a32.92,32.92,0,0,1,3.92-10.76l8.94-15.48a33,33,0,0,0,3.91-22.22ZM201.31,377.87A174.1,174.1,0,1,1,375.4,203.78,174.1,174.1,0,0,1,201.31,377.87" transform="translate(-3.55 -3.48)"/></g><text class="cls-4" transform="translate(96.95 292.89) rotate(43.43)">C</text><path class="cls-3" d="M137.54,303.46c-.4.59-.86,1.2-1.44,2-1,1.47-2.58,3.58-3.69,5.06-2.12,2.82-4.21,5.51-5.25,6.08-1.48.82-2.63.5-4.44-.73-.31-.21-.63-.49-1-.72-1.62-1.21-3.18-2.57-2.09-4.77a31.86,31.86,0,0,1,2.12-3.49c.83-1.22,1.71-2.44,2.49-3.59l1.11-1.63c1.47-2.15,3-4.07,4.58-6.13,1.19-1.53,2.75-1.59,4.66-.29a11.48,11.48,0,0,1,1.16.69c1.67,1.13,3.8,3.15,3.14,4.88A12.36,12.36,0,0,1,137.54,303.46Zm-3.61-4.54a1.76,1.76,0,0,0-2.48.35c-2.56,3.39-8.19,10.78-8.3,11.68a1.91,1.91,0,0,0,.93,1.55,1.39,1.39,0,0,0,1.87-.06c1-.8,5.37-6.55,8.43-11.13A1.57,1.57,0,0,0,133.93,298.92Z" transform="translate(-3.55 -3.48)"/><text class="cls-5" transform="translate(131.81 320.14) rotate(25.59)">f</text><path class="cls-3" d="M154.28,331.52c2.29-6.33,4-11.81,6-17.66-.73-.2-1.34-.49-2-.7a11,11,0,0,1,.4-1.5c.19-.56.36-1.08.5-1.38.28.09,1.2.39,2.06.72,1.29-2.72,2-7.65,6.58-7.93a14,14,0,0,1,4.29.79l.4.13a7.25,7.25,0,0,1-.29,1l-.34,1-.15.48c-1.57-.34-3.94-.67-4.82,1.34a32.49,32.49,0,0,0-1.75,4.55l3.62,1.36c-.17.52-.38,1.43-.67,2.31l-.14.43a40.48,40.48,0,0,1-4-1.17c-2.14,5.84-3.94,11.75-6.16,17.7Z" transform="translate(-3.55 -3.48)"/><text class="cls-6" transform="translate(164.79 333.18) rotate(9.88)">e</text><path class="cls-3" d="M195.44,329.83c0,.54-.14,3.61,1.1,4.8a8.48,8.48,0,0,0,5.17,2.23l.1,4c-4.36-.33-5.61-1.27-7.22-2.81-2.23-2-2.74-7.23-2.76-11.13,0-1.18-.08-2.57-.06-3.91,0-2.77.51-5.45,2.75-6.13a14.39,14.39,0,0,1,3.28-.37,4,4,0,0,1,3.42,1.44c.82,1.19,1,3.09,1,5.27,0,1.81-.18,3.78-.22,5.88C200,329.32,197.54,329.61,195.44,329.83Zm1.93-10a1.2,1.2,0,0,0-.38,0c-1.35.23-1.55,2.12-1.59,4.47l0,1.8c.76.06,2.44-.13,3.62-.06a24.69,24.69,0,0,0-.13-4.88A1.43,1.43,0,0,0,197.37,319.86Z" transform="translate(-3.55 -3.48)"/><text class="cls-7" transform="translate(207.01 336.59) rotate(-5.43)"> </text><path class="cls-3" d="M221,336.07c1.76-1.26,3.85-2.83,3.73-5.12s-2.3-4-4.3-7.15a20,20,0,0,1-2.94-6.52A8,8,0,0,1,218.7,311a10.23,10.23,0,0,1,5-3.88l1.75,3.59a10.16,10.16,0,0,0-3.34,2.56,4.37,4.37,0,0,0-.5,3.27,17,17,0,0,0,3.14,6,19.58,19.58,0,0,1,3.58,7.42c.55,2.72,0,5.3-2.31,7a16,16,0,0,1-3.32,2Z" transform="translate(-3.55 -3.48)"/><text class="cls-5" transform="translate(235.6 331.93) rotate(-20.36)">h</text><path class="cls-3" d="M263.51,304.44c.36.62.71,1.29,1.16,2.15.87,1.58,2.11,3.87,3,5.51,1.63,3.14,3.17,6.18,3.22,7.36.11,1.69-.68,2.59-2.57,3.69-.33.19-.71.36-1.07.57-1.79.95-3.69,1.76-5.21-.17a32.49,32.49,0,0,1-2.23-3.42c-.74-1.27-1.46-2.6-2.16-3.79l-1-1.71c-1.31-2.25-2.39-4.44-3.55-6.78-.86-1.73-.24-3.16,1.76-4.32a8.93,8.93,0,0,1,1.12-.75c1.74-1,4.48-2.08,5.75-.73A12,12,0,0,1,263.51,304.44Zm-5.65,1.3a1.74,1.74,0,0,0-.76,2.38c2,3.77,6.19,12.05,7,12.53a1.86,1.86,0,0,0,1.79-.17,1.38,1.38,0,0,0,.76-1.71c-.27-1.3-3.59-7.67-6.4-12.41A1.57,1.57,0,0,0,257.86,305.74Z" transform="translate(-3.55 -3.48)"/><text class="cls-8" transform="translate(277.56 311.57) rotate(-39.94)">p</text><text class="cls-9" transform="matrix(0.7, -0.72, 0.72, 0.7, 113.73, 135.46)">V</text><path class="cls-3" d="M130.18,112.2c.32.44,2,3,3.76,3.19a8.5,8.5,0,0,0,5.47-1.33l2.51,3.17c-3.69,2.36-5.25,2.35-7.46,2.09-3-.3-6.53-4.14-8.89-7.25-.73-.93-1.61-2-2.4-3.09-1.63-2.24-2.86-4.67-1.48-6.55a14.67,14.67,0,0,1,2.4-2.26,4,4,0,0,1,3.61-.9c1.37.45,2.65,1.86,3.93,3.63,1.06,1.46,2.12,3.13,3.35,4.83C133.54,109,131.73,110.76,130.18,112.2Zm-4.44-9.13a1.2,1.2,0,0,0-.29.26c-.94,1,0,2.62,1.42,4.52l1.06,1.47c.64-.41,1.87-1.57,2.85-2.23a24.63,24.63,0,0,0-3-3.82A1.42,1.42,0,0,0,125.74,103.07Z" transform="translate(-3.55 -3.48)"/><text class="cls-10" transform="translate(141.61 110.45) rotate(-26.7)">g</text><path class="cls-3" d="M156.76,71.2a18.32,18.32,0,0,1,0,11.33l-2.28-.19c.2-2.52-.1-5.21-1.36-10.42Z" transform="translate(-3.55 -3.48)"/><text class="cls-11" transform="translate(167.3 98.63) rotate(-10.36)">Y</text><path class="cls-3" d="M202.69,80c0,.72,0,1.47-.05,2.44,0,1.81,0,4.41-.11,6.26-.11,3.53-.26,6.93-.79,8-.73,1.53-1.86,1.92-4,2-.38,0-.8,0-1.22,0-2,0-4.08-.27-4.45-2.7a31.71,31.71,0,0,1-.28-4.07c0-1.47,0-3,0-4.37l0-2c-.05-2.61.08-5,.21-7.65.09-1.94,1.34-2.88,3.65-2.92a10.55,10.55,0,0,1,1.34-.1c2,0,4.92.38,5.37,2.18A12.74,12.74,0,0,1,202.69,80Zm-5.58-1.63a1.75,1.75,0,0,0-1.82,1.71c-.14,4.25-.49,13.53-.06,14.32a1.87,1.87,0,0,0,1.65.73,1.38,1.38,0,0,0,1.5-1.11c.4-1.27.62-8.46.48-14A1.57,1.57,0,0,0,197.11,78.37Z" transform="translate(-3.55 -3.48)"/><text class="cls-12" transform="translate(204.8 94.99) rotate(5.82)"> </text><path class="cls-3" d="M228.06,70c2.26.5,4.45,1.29,5.28,2.94a6.93,6.93,0,0,1,.38,4.65,20.22,20.22,0,0,1-1.44,3.94,7,7,0,0,1-2.2,2.91,15.79,15.79,0,0,1,.83,10.34,37.91,37.91,0,0,1-1.27,4.32c-.51,1.52-2.76,2.14-4,1.89-.83-.14-1.61-.31-2.34-.48-1.72-.38-3.73-.83-5.22-1.12,1.59-9.8,3.87-21.52,5.65-30.24C224.88,69.36,226.5,69.6,228.06,70Zm-4,16.19L222,96.1l.53.12a3.94,3.94,0,0,0,2.6-.07c.48-.23.86-1.18,1.28-3,.21-.95.43-2.14.68-3.64C227.5,87.25,225.65,86.32,224.09,86.14Zm3.41-12.53a8.41,8.41,0,0,0-1-.15c-.77,3.44-1.26,6.22-1.68,8.84a5,5,0,0,0,3-.06c1.18-.68,1.46-3.63,1.92-6.28C230,74.55,228.77,73.89,227.5,73.61Z" transform="translate(-3.55 -3.48)"/><text class="cls-13" transform="matrix(0.92, 0.38, -0.38, 0.92, 228.62, 98.9)">a</text><path class="cls-3" d="M260.73,101.34c3.19-1,7-2,11.83-3.3a31,31,0,0,1,1.25,3.13c-4.73,1.58-6.2,1.79-8.75,2.76-.22,3.64-.73,7.59-1.3,12.65-1.12-.11-2.19-.14-3.69-.3.42-4.9.9-8.32,1.05-11.46-1.26.49-2.28.69-3.08,1.08-1.16,1.6-2.67,4.08-3.79,6-1.05-.71-1.47-1-3.19-2.11l17-26.38c.34.17.66.37,1,.59l1.21.77.56.36C268.36,89.37,264.84,94.85,260.73,101.34Z" transform="translate(-3.55 -3.48)"/><text class="cls-14" transform="matrix(0.75, 0.66, -0.66, 0.75, 260.5, 114.98)">e</text><path class="cls-3" d="M298.49,118.48c-1.16,1-2.28,2.18-2.92,2.72,1.68,1.55,2.94,2.79,4.68,4.67-.63.75-1.42,1.64-1.91,2.1-2-1.4-3.38-2.53-5.47-4.18-5,4.54-8.82,8-12,10.93-.92-1.09-1.83-2.57-2.34-3.3,5.55-5.09,11.53-10,17.52-15.19Z" transform="translate(-3.55 -3.48)"/><text class="cls-6" transform="translate(282.84 137.26) rotate(58.52)">y</text><g class="cls-2"><circle class="cls-15" cx="201.3" cy="203.78" r="163.61" transform="translate(-4.56 -2.47) rotate(-0.29)"/></g><g class="cls-2"><path class="cls-16" d="M251,232c2.25.92,17.35,10.5,30.34-18.75" transform="translate(-3.55 -3.48)"/><path class="cls-16" d="M283.48,222.73c-1,.19-7,.38-7.44.31" transform="translate(-3.55 -3.48)"/><path class="cls-16" d="M285,217.33c-1.57.7-7.83,4.55-8.08,4.4a56.82,56.82,0,0,1-5.75-4.82" transform="translate(-3.55 -3.48)"/><path class="cls-16" d="M275.7,213.06c0,.78,1.12,8.18,1.2,8.67" transform="translate(-3.55 -3.48)"/><path d="M158,250.41c.72.92-.06,5.66-.08,6.2s.34,1.83-.37,1.73-2-1.62-1.76-1.83a3.36,3.36,0,0,0,1.37-1.88c.47-1.38-1.24-1.39-1.38-1.22s-1.74,2.19-2.19,2.75.13,1.71.16,2a17.05,17.05,0,0,0,3,2.37,5.52,5.52,0,0,0,3.55.39,2.06,2.06,0,0,1,2-.05c1,.42,3.58-.32,3.94-.49s.54-5.11-2.66-9.84c0,0-1.71-2.81-3.4-2.86a22.89,22.89,0,0,0-2.91-.09c-.39.09.75,2.82.75,2.82" transform="translate(-3.55 -3.48)"/><path class="cls-17" d="M160.81,228c-5.57.35-22.09,7.33-11.38,15.83,3.08,2.44,9.21,4.71,9.21,4.71" transform="translate(-3.55 -3.48)"/><path d="M194.38,290.48c-2.07,1.27-11.52,2.64-12.31,2.69s-.73-1.73.07-2.28,6.11-2.61,9.05-3.81c-3.82-8.26,1.57-17.61,1.64-17.71l1.37.86c-.06.09-5,8.82-1.5,16.25,1-.17,2.05,3.77,1.68,4" transform="translate(-3.55 -3.48)"/><path d="M223.93,291.15c2,1.4,11.06-.09,11.85,0s.83-1.68.06-2.28-7-1-9.83-2.34c4.31-8-.51-17.68-.56-17.78l-1.43.77c0,.1,4.42,9.11.52,16.32-1-.24-1,5.07-.61,5.31" transform="translate(-3.55 -3.48)"/><path class="cls-18" d="M158.62,196.43s-.88-11.07-1.52-16,5.27-18.65,13.56-19.68,66.42-.57,66.42-.57,17.28,3.37,17.67,18.62.39,20.39.39,20.39l-95.59,3.92Z" transform="translate(-3.55 -3.48)"/><path class="cls-17" d="M158.62,196.43s-.88-11.07-1.52-16,5.27-18.65,13.56-19.68,66.42-.57,66.42-.57,17.28,3.37,17.67,18.62.39,20.39.39,20.39l-95.59,3.92Z" transform="translate(-3.55 -3.48)"/><path class="cls-19" d="M208.51,183.93c3.4.53,34.65,2.63,43.33-5.49" transform="translate(-3.55 -3.48)"/><path class="cls-16" d="M157.16,178.22c6.38,2.57,26,8.5,47.36,5.48" transform="translate(-3.55 -3.48)"/><path class="cls-20" d="M207.58,198.05c-8-8.72-16.2-6-19.79-.24l-.29-.27c1.56,16.07,5.74,59.77,7.37,76.83a110.76,110.76,0,0,0,16.27.65l-3.54-77,0,0" transform="translate(-3.55 -3.48)"/><path class="cls-17" d="M207.58,198.05c-8-8.72-16.2-6-19.79-.24l-.29-.27c1.56,16.07,5.74,59.77,7.37,76.83a110.76,110.76,0,0,0,16.27.65l-3.54-77Z" transform="translate(-3.55 -3.48)"/><path class="cls-20" d="M168,195.79l-.2-.16c2.92,15.7,10.25,60.15,12.85,76a87.35,87.35,0,0,0,14.25,2.78c-1.63-17.06-5.81-60.76-7.37-76.83-5.58-5.2-15.06-8.17-19.53-1.75" transform="translate(-3.55 -3.48)"/><path class="cls-17" d="M168,195.79l-.2-.16c2.92,15.7,10.25,60.15,12.85,76a87.35,87.35,0,0,0,14.25,2.78c-1.63-17.06-5.81-60.76-7.37-76.83C181.92,192.34,172.44,189.37,168,195.79Z" transform="translate(-3.55 -3.48)"/><path class="cls-20" d="M151.18,199.77s12.26,54.19,14.88,64.28c2.91,3.1,8.1,5.67,14.56,7.54-2.6-15.81-9.93-60.26-12.85-76-10.66-8.51-17.16,1.86-16.59,4.14" transform="translate(-3.55 -3.48)"/><path class="cls-17" d="M151.18,199.77s12.26,54.19,14.88,64.28c2.91,3.1,8.1,5.67,14.56,7.54-2.6-15.81-9.93-60.26-12.85-76C157.11,187.12,150.61,197.49,151.18,199.77Z" transform="translate(-3.55 -3.48)"/><path class="cls-20" d="M243.9,196.07l-.16-.23-5.47,73.87c5.53-2.39,10-5.62,12.83-9.8,1.83-2.74,6.44-59.93,6.88-65.19-4-3.76-9.52-3.17-14.08,1.35" transform="translate(-3.55 -3.48)"/><path class="cls-17" d="M243.9,196.07l-.16-.23-5.47,73.87c5.53-2.39,10-5.62,12.83-9.8,1.83-2.74,6.44-59.93,6.88-65.19C254,191,248.46,191.55,243.9,196.07Z" transform="translate(-3.55 -3.48)"/><path class="cls-20" d="M207.6,198l3.54,77a94.64,94.64,0,0,0,13.31-1.35l3.06-76.8c-6.45-7.43-14.95-5.85-19.91,1.15" transform="translate(-3.55 -3.48)"/><path class="cls-17" d="M207.6,198l3.54,77a94.64,94.64,0,0,0,13.31-1.35l3.06-76.8C221.06,189.44,212.56,191,207.6,198Z" transform="translate(-3.55 -3.48)"/><path class="cls-20" d="M227.63,197l-.12-.14-3.06,76.8a63.21,63.21,0,0,0,13.82-4l5.47-73.87c-4.3-6.21-11.2-5.3-16.11,1.17" transform="translate(-3.55 -3.48)"/><path class="cls-17" d="M227.63,197l-.12-.14-3.06,76.8a63.21,63.21,0,0,0,13.82-4l5.47-73.87C239.44,189.63,232.54,190.54,227.63,197Z" transform="translate(-3.55 -3.48)"/><path class="cls-21" d="M254,200.86a2,2,0,1,1-1.94-2.05,2,2,0,0,1,1.94,2.05" transform="translate(-3.55 -3.48)"/><path class="cls-21" d="M246.44,259h0a1.51,1.51,0,0,1-1.35-1.64l4.86-50a1.49,1.49,0,1,1,3,.28l-4.85,50a1.5,1.5,0,0,1-1.63,1.35" transform="translate(-3.55 -3.48)"/><path class="cls-22" d="M249.38,190.29h0a2.12,2.12,0,0,1-2-2.17l.12-3.77a2.1,2.1,0,1,1,4.2.13l-.11,3.77a2.11,2.11,0,0,1-2.17,2" transform="translate(-3.55 -3.48)"/><path class="cls-23" d="M163.37,190.29h0a2.13,2.13,0,0,1-2.37-1.81l-.49-3.74a2.1,2.1,0,1,1,4.17-.56l.49,3.74a2.11,2.11,0,0,1-1.8,2.37" transform="translate(-3.55 -3.48)"/><path class="cls-24" d="M242.49,171.49c1.28,1,2.49,4.24,2.79,4.89s2.4,2.1,3.42.1c.83-1.62-.54-3.57-1.34-4.92s-1.75-3.47-3.53-3.65a2.47,2.47,0,0,0-2.15,1.1c-.59,1,0,1.89.81,2.48" transform="translate(-3.55 -3.48)"/><path class="cls-23" d="M169.9,170.42c-1.34.88-2.74,4.08-3.08,4.71s-2.51,2-3.41-.1c-.73-1.67.75-3.53,1.62-4.83s2-3.36,3.75-3.43a2.46,2.46,0,0,1,2.08,1.22c.53,1-.13,1.89-1,2.43" transform="translate(-3.55 -3.48)"/><path class="cls-25" d="M180.35,167.33c-6.26,0-12.26-4.64-12.72-5.51-2.33-4.38-2.86-8.24-1.63-11.78,2.61-7.55,12.67-12,20.74-15.55,2.22-1,4.32-1.91,6-2.8,6.72-3.55,6.32-9.78,4.86-14.62,3.16,4.77,6.51,10.13,7.08,12.17.86,3.08-.74,3.81-.81,3.83l-.33.14-.13.34-6.79,19c0,.08-1.64,4.9-9.19,12a10,10,0,0,1-7.08,2.74" transform="translate(-3.55 -3.48)"/><path class="cls-26" d="M199.26,121.1c2.32,3.64,4.24,6.94,4.64,8.36.59,2.13-.14,2.74-.33,2.86l-.64.16-.28.8-6.79,19v.06s-1.63,4.73-9,11.63a9.16,9.16,0,0,1-6.52,2.52c-5.75,0-11.37-4.13-12-5.08-2.22-4.17-2.74-7.82-1.59-11.14,2.5-7.21,12.38-11.57,20.31-15.07,2.23-1,4.34-1.92,6.05-2.82,5.35-2.83,6.51-7.18,6.14-11.31m-5-10.37c.91,3,8.32,14.85-1.89,20.25s-35.63,12-25.44,31.22c.68,1.3,7,5.94,13.43,5.94a10.74,10.74,0,0,0,7.63-3c7.85-7.38,9.4-12.32,9.4-12.32l6.79-19s2.38-.9,1.29-4.81-11.21-18.29-11.21-18.29" transform="translate(-3.55 -3.48)"/><path class="cls-27" d="M232.09,167.85a10.64,10.64,0,0,1-8.47-3.9c-3.27-4-.65-8.21,1.45-11.55,1.4-2.23,2.61-4.15,1.69-5.66-1.48-2.43-21.72-25.15-29.2-33.52,14.23,7,53.58,28.68,44.54,49.23-1.38,3.13-5.59,5.4-10,5.4" transform="translate(-3.55 -3.48)"/><path class="cls-26" d="M201,115.88c16.17,8.42,48.39,27.93,40.33,46.24-1.24,2.8-5.22,4.92-9.27,4.92a9.84,9.84,0,0,1-7.84-3.6c-2.7-3.34-1.08-6.5,1.5-10.61,1.55-2.45,2.88-4.57,1.7-6.51-1.36-2.25-17.49-20.43-26.42-30.44m-6.78-5.15s30.05,33.53,31.82,36.44-8.85,10.13-3.08,17.29a11.42,11.42,0,0,0,9.1,4.2c4.68,0,9.23-2.44,10.75-5.89,11.06-25.12-46.22-50.9-48.59-52" transform="translate(-3.55 -3.48)"/><path class="cls-28" d="M213.56,170.72a12.49,12.49,0,0,1-8.79-3.14c-2.73-2.64-.74-5.54,2.85-10,2.66-3.3,5.41-6.72,4.73-10.28-1.13-5.87-11.52-25.87-15.69-33.75,8.08,6.19,30.22,24.49,32.32,40.53a15.18,15.18,0,0,1-3.41,12.1c-2.15,2.6-7.32,4.55-12,4.55" transform="translate(-3.55 -3.48)"/><path class="cls-26" d="M199.14,116.51c9.46,7.61,27.19,23.58,29,37.66A14.2,14.2,0,0,1,225,165.65c-1.72,2.07-6.29,4.26-11.39,4.26a11.72,11.72,0,0,1-8.23-2.91c-2.16-2.1-.77-4.33,2.92-8.92,2.78-3.45,5.65-7,4.89-10.94-1-5.25-9.19-21.42-14-30.63m-4.89-5.78s15.93,29.55,17.3,36.71-13.57,14.7-7.34,20.73a13.22,13.22,0,0,0,9.35,3.36c5.18,0,10.41-2.17,12.64-4.84,17.26-20.79-30.69-55.07-31.95-56" transform="translate(-3.55 -3.48)"/><path class="cls-29" d="M193.9,172.91c-3.19,0-8.89-.78-11.15-6-3.35-7.76,3.95-14.75,10.39-20.92a59.46,59.46,0,0,0,5.73-6c4.15-5.37,1.78-15.71-.81-22.78,4,5.61,9.66,14.14,12.3,21,4.34,11.21,1.53,23.34-1.42,28.75-1.54,2.82-8.29,6-15,6Z" transform="translate(-3.55 -3.48)"/><path class="cls-26" d="M200.4,122c3.44,5.11,7.2,11.29,9.21,16.47,4.24,11,1.49,22.79-1.39,28.08-1.39,2.56-7.95,5.54-14.32,5.54-3.66,0-8.43-1-10.4-5.53-3.13-7.25,3.95-14,10.2-20a60.19,60.19,0,0,0,5.81-6.07c3.4-4.4,2.65-11.92.89-18.47m-6.15-11.28c2.59,4.07,9.47,21.66,4,28.76s-21,16.61-16.22,27.72c2.05,4.76,6.84,6.51,11.89,6.51,6.75,0,14-3.13,15.75-6.39,3.11-5.71,5.88-18,1.47-29.43s-16.87-27.17-16.87-27.17" transform="translate(-3.55 -3.48)"/><path class="cls-30" d="M181.77,140.67c-1,.1-2.39,1.39-2.1,2.43s.82,1.31,1.2,1.42a5.69,5.69,0,0,0,2.8-1.69,1.65,1.65,0,0,0-1.9-2.16" transform="translate(-3.55 -3.48)"/><path class="cls-30" d="M175.21,144.88l-.45.31a16,16,0,0,0-3,2.9c-1.94,2.3-4.41,5.86-3.25,9,.4,1.09,1.22,2.86,2.68,2.57A2.4,2.4,0,0,0,173,158c.09-.51-.31-1-.46-1.47a4.27,4.27,0,0,1,.25-3,14.14,14.14,0,0,1,3.92-4.8c.89-.73,2.16-1.81,1.67-2.93-.86-2-2.24-1.59-3.15-1" transform="translate(-3.55 -3.48)"/><path d="M236.83,225.14a10.91,10.91,0,1,1-10.58-11.24,10.92,10.92,0,0,1,10.58,11.24" transform="translate(-3.55 -3.48)"/><path class="cls-31" d="M232.19,223.18c-1.15,1.3-3.46,1.12-5.15-.39s-2.14-3.77-1-5.07,3.46-1.12,5.15.39,2.14,3.78,1,5.07" transform="translate(-3.55 -3.48)"/><path class="cls-32" d="M227.91,228.72a1.37,1.37,0,0,0,.26.37,3.33,3.33,0,0,0,1.21.82,2,2,0,0,0,1.27.17,2.4,2.4,0,0,0,1.22-1,3.26,3.26,0,0,0,.48-.85,1.14,1.14,0,0,0-.08-.94,1.73,1.73,0,0,0-1.38-.56l-1.22-.1c-1.16-.1-2.39.77-1.76,2.1" transform="translate(-3.55 -3.48)"/><path class="cls-16" d="M172.25,221.29c2.69-1.39,16.07-2.06,19.23,6.37-4.84-1.43-13.09-1.54-15.94.82" transform="translate(-3.55 -3.48)"/><path class="cls-16" d="M196.32,236.79c.74,1.56,2.15,3,3.88,3a5.19,5.19,0,0,0,1.18-.19,10.08,10.08,0,0,0,6.09-4.85" transform="translate(-3.55 -3.48)"/></g></svg>